<mxfile modified="2020-08-11T16:57:43.520Z" host="6821ed7a-e73c-4b13-b2b4-02ba09f92305" agent="5.0 (Macintosh; Intel Mac OS X 10_15_6) AppleWebKit/537.36 (KHTML, like Gecko) Code/1.47.3 Chrome/78.0.3904.130 Electron/7.3.2 Safari/537.36" etag="wlHztxQsstyZ4vXkyNQW" version="13.1.3">
    <diagram id="Jxfom3yM5TZDiGBManyZ" name="Page-1">
        <mxGraphModel dx="1824" dy="1154" grid="1" gridSize="10" guides="1" tooltips="1" connect="1" arrows="1" fold="1" page="1" pageScale="1" pageWidth="850" pageHeight="1100" math="0" shadow="0">
            <root>
                <mxCell id="0"/>
                <mxCell id="1" parent="0"/>
                <mxCell id="GEuAhGHCuxGuIh9eKHUS-29" value="" style="rounded=0;whiteSpace=wrap;html=1;fontSize=11;fillColor=none;dashed=1;" parent="1" vertex="1">
                    <mxGeometry x="220" y="60" width="330" height="840" as="geometry"/>
                </mxCell>
                <mxCell id="GEuAhGHCuxGuIh9eKHUS-12" style="edgeStyle=orthogonalEdgeStyle;rounded=0;orthogonalLoop=1;jettySize=auto;html=1;exitX=-0.036;exitY=0.133;exitDx=0;exitDy=0;entryX=1.009;entryY=0.15;entryDx=0;entryDy=0;entryPerimeter=0;exitPerimeter=0;" parent="1" source="GEuAhGHCuxGuIh9eKHUS-2" target="GEuAhGHCuxGuIh9eKHUS-3" edge="1">
                    <mxGeometry relative="1" as="geometry"/>
                </mxCell>
                <mxCell id="GEuAhGHCuxGuIh9eKHUS-13" value="&amp;lt;websockets&amp;gt;&lt;br&gt;Subscribe tel1" style="text;html=1;resizable=0;points=[];align=center;verticalAlign=middle;labelBackgroundColor=#ffffff;fontSize=11;" parent="GEuAhGHCuxGuIh9eKHUS-12" vertex="1" connectable="0">
                    <mxGeometry x="-0.1619" y="2" relative="1" as="geometry">
                        <mxPoint as="offset"/>
                    </mxGeometry>
                </mxCell>
                <mxCell id="GEuAhGHCuxGuIh9eKHUS-24" style="edgeStyle=orthogonalEdgeStyle;rounded=0;orthogonalLoop=1;jettySize=auto;html=1;exitX=0.75;exitY=0;exitDx=0;exitDy=0;entryX=1;entryY=0.25;entryDx=0;entryDy=0;fontSize=11;" parent="1" source="GEuAhGHCuxGuIh9eKHUS-2" target="GEuAhGHCuxGuIh9eKHUS-8" edge="1">
                    <mxGeometry relative="1" as="geometry"/>
                </mxCell>
                <mxCell id="NuZOIr6IMCNAJ--xz0kv-3" value="&lt;span style=&quot;text-align: left ; background-color: rgb(248 , 249 , 250)&quot;&gt;&amp;lt;HTTP Request&amp;gt;&lt;br&gt;Username + password&lt;/span&gt;" style="edgeLabel;html=1;align=center;verticalAlign=middle;resizable=0;points=[];" parent="GEuAhGHCuxGuIh9eKHUS-24" vertex="1" connectable="0">
                    <mxGeometry x="0.0136" y="-2" relative="1" as="geometry">
                        <mxPoint x="8.560000000000002" as="offset"/>
                    </mxGeometry>
                </mxCell>
                <mxCell id="f5708szo8LG6qZLeBaCD-7" style="edgeStyle=orthogonalEdgeStyle;rounded=0;orthogonalLoop=1;jettySize=auto;html=1;entryX=0.75;entryY=1;entryDx=0;entryDy=0;exitX=0.25;exitY=1;exitDx=0;exitDy=0;fillColor=#60a917;strokeColor=#2D7600;" parent="1" source="GEuAhGHCuxGuIh9eKHUS-2" target="GEuAhGHCuxGuIh9eKHUS-3" edge="1">
                    <mxGeometry relative="1" as="geometry">
                        <Array as="points">
                            <mxPoint x="678" y="390"/>
                            <mxPoint x="503" y="390"/>
                        </Array>
                    </mxGeometry>
                </mxCell>
                <mxCell id="f5708szo8LG6qZLeBaCD-8" value="&lt;font color=&quot;#006600&quot;&gt;&amp;lt;websockets&amp;gt;&lt;br&gt;Observing Log&lt;/font&gt;" style="edgeLabel;html=1;align=center;verticalAlign=middle;resizable=0;points=[];" parent="f5708szo8LG6qZLeBaCD-7" vertex="1" connectable="0">
                    <mxGeometry x="-0.2698" y="-3" relative="1" as="geometry">
                        <mxPoint as="offset"/>
                    </mxGeometry>
                </mxCell>
                <mxCell id="GEuAhGHCuxGuIh9eKHUS-2" value="Frontend 1" style="rounded=0;whiteSpace=wrap;html=1;" parent="1" vertex="1">
                    <mxGeometry x="650" y="300" width="110" height="60" as="geometry"/>
                </mxCell>
                <mxCell id="GEuAhGHCuxGuIh9eKHUS-21" value="&amp;lt;websockets&amp;gt;&lt;br&gt;Send tel1" style="edgeStyle=orthogonalEdgeStyle;rounded=0;orthogonalLoop=1;jettySize=auto;html=1;entryX=0;entryY=0.75;entryDx=0;entryDy=0;fontSize=11;exitX=1;exitY=0.75;exitDx=0;exitDy=0;" parent="1" source="GEuAhGHCuxGuIh9eKHUS-3" target="GEuAhGHCuxGuIh9eKHUS-2" edge="1">
                    <mxGeometry relative="1" as="geometry"/>
                </mxCell>
                <mxCell id="f5708szo8LG6qZLeBaCD-9" style="edgeStyle=orthogonalEdgeStyle;rounded=0;orthogonalLoop=1;jettySize=auto;html=1;exitX=0.25;exitY=1;exitDx=0;exitDy=0;entryX=0.15;entryY=0.05;entryDx=0;entryDy=0;entryPerimeter=0;fillColor=#60a917;strokeColor=#2D7600;" parent="1" source="GEuAhGHCuxGuIh9eKHUS-3" target="NuZOIr6IMCNAJ--xz0kv-4" edge="1">
                    <mxGeometry relative="1" as="geometry">
                        <Array as="points">
                            <mxPoint x="437" y="360"/>
                            <mxPoint x="437" y="395"/>
                        </Array>
                    </mxGeometry>
                </mxCell>
                <mxCell id="f5708szo8LG6qZLeBaCD-10" value="&lt;font color=&quot;#006600&quot;&gt;Obs Log&lt;/font&gt;" style="edgeLabel;html=1;align=center;verticalAlign=middle;resizable=0;points=[];" parent="f5708szo8LG6qZLeBaCD-9" vertex="1" connectable="0">
                    <mxGeometry x="-0.4118" y="1" relative="1" as="geometry">
                        <mxPoint y="15.5" as="offset"/>
                    </mxGeometry>
                </mxCell>
                <mxCell id="GEuAhGHCuxGuIh9eKHUS-3" value="Consumer 1" style="rounded=0;whiteSpace=wrap;html=1;" parent="1" vertex="1">
                    <mxGeometry x="420" y="300" width="110" height="60" as="geometry"/>
                </mxCell>
                <mxCell id="GEuAhGHCuxGuIh9eKHUS-47" style="edgeStyle=orthogonalEdgeStyle;curved=1;rounded=0;orthogonalLoop=1;jettySize=auto;html=1;exitX=0.003;exitY=0.067;exitDx=0;exitDy=0;entryX=1;entryY=0.079;entryDx=0;entryDy=0;fontSize=11;exitPerimeter=0;entryPerimeter=0;" parent="1" source="GEuAhGHCuxGuIh9eKHUS-5" target="GEuAhGHCuxGuIh9eKHUS-6" edge="1">
                    <mxGeometry relative="1" as="geometry"/>
                </mxCell>
                <mxCell id="GEuAhGHCuxGuIh9eKHUS-48" value="&amp;lt;websockets&amp;gt;&lt;br&gt;Subscribe tel1 &amp;amp; tel2" style="text;html=1;resizable=0;points=[];align=center;verticalAlign=middle;labelBackgroundColor=#ffffff;fontSize=11;" parent="GEuAhGHCuxGuIh9eKHUS-47" vertex="1" connectable="0">
                    <mxGeometry x="-0.2118" y="-1" relative="1" as="geometry">
                        <mxPoint x="-7" as="offset"/>
                    </mxGeometry>
                </mxCell>
                <mxCell id="NuZOIr6IMCNAJ--xz0kv-6" style="edgeStyle=orthogonalEdgeStyle;rounded=0;orthogonalLoop=1;jettySize=auto;html=1;entryX=1;entryY=0;entryDx=0;entryDy=0;exitX=0.75;exitY=1;exitDx=0;exitDy=0;" parent="1" source="GEuAhGHCuxGuIh9eKHUS-5" target="NuZOIr6IMCNAJ--xz0kv-5" edge="1">
                    <mxGeometry relative="1" as="geometry">
                        <mxPoint x="705" y="750" as="sourcePoint"/>
                        <Array as="points">
                            <mxPoint x="762" y="790"/>
                        </Array>
                    </mxGeometry>
                </mxCell>
                <mxCell id="NuZOIr6IMCNAJ--xz0kv-7" value="&amp;lt;HTTP Request&amp;gt;&lt;br&gt;Command" style="edgeLabel;html=1;align=center;verticalAlign=middle;resizable=0;points=[];" parent="NuZOIr6IMCNAJ--xz0kv-6" vertex="1" connectable="0">
                    <mxGeometry x="-0.0074" y="-1" relative="1" as="geometry">
                        <mxPoint x="-58.480000000000004" as="offset"/>
                    </mxGeometry>
                </mxCell>
                <mxCell id="2" style="edgeStyle=orthogonalEdgeStyle;rounded=0;orthogonalLoop=1;jettySize=auto;html=1;exitX=0.25;exitY=1;exitDx=0;exitDy=0;entryX=0.75;entryY=1;entryDx=0;entryDy=0;" edge="1" parent="1" source="GEuAhGHCuxGuIh9eKHUS-5" target="GEuAhGHCuxGuIh9eKHUS-6">
                    <mxGeometry relative="1" as="geometry">
                        <Array as="points">
                            <mxPoint x="708" y="710"/>
                            <mxPoint x="498" y="710"/>
                        </Array>
                    </mxGeometry>
                </mxCell>
                <mxCell id="3" value="&amp;lt;websockets&amp;gt;&lt;br&gt;Request server time" style="edgeLabel;html=1;align=center;verticalAlign=middle;resizable=0;points=[];" vertex="1" connectable="0" parent="2">
                    <mxGeometry x="0.0601" y="3" relative="1" as="geometry">
                        <mxPoint as="offset"/>
                    </mxGeometry>
                </mxCell>
                <mxCell id="11" style="edgeStyle=orthogonalEdgeStyle;rounded=0;orthogonalLoop=1;jettySize=auto;html=1;exitX=1;exitY=0.75;exitDx=0;exitDy=0;entryX=1;entryY=1;entryDx=0;entryDy=0;startArrow=classic;startFill=1;" edge="1" parent="1" source="GEuAhGHCuxGuIh9eKHUS-5" target="NuZOIr6IMCNAJ--xz0kv-5">
                    <mxGeometry relative="1" as="geometry">
                        <Array as="points">
                            <mxPoint x="810" y="652"/>
                            <mxPoint x="810" y="870"/>
                        </Array>
                    </mxGeometry>
                </mxCell>
                <mxCell id="12" value="&amp;lt;HTTP&amp;gt;&lt;br&gt;SAL Info" style="edgeLabel;html=1;align=center;verticalAlign=middle;resizable=0;points=[];" vertex="1" connectable="0" parent="11">
                    <mxGeometry x="0.5067" y="-3" relative="1" as="geometry">
                        <mxPoint as="offset"/>
                    </mxGeometry>
                </mxCell>
                <mxCell id="GEuAhGHCuxGuIh9eKHUS-5" value="Frontend 2" style="rounded=0;whiteSpace=wrap;html=1;" parent="1" vertex="1">
                    <mxGeometry x="680" y="570" width="110" height="110" as="geometry"/>
                </mxCell>
                <mxCell id="GEuAhGHCuxGuIh9eKHUS-22" style="edgeStyle=orthogonalEdgeStyle;rounded=0;orthogonalLoop=1;jettySize=auto;html=1;exitX=1;exitY=0.5;exitDx=0;exitDy=0;entryX=0;entryY=0.5;entryDx=0;entryDy=0;fontSize=11;" parent="1" source="GEuAhGHCuxGuIh9eKHUS-6" target="GEuAhGHCuxGuIh9eKHUS-5" edge="1">
                    <mxGeometry relative="1" as="geometry"/>
                </mxCell>
                <mxCell id="GEuAhGHCuxGuIh9eKHUS-23" value="&amp;lt;websockets&amp;gt;&lt;br&gt;Send tel 1" style="text;html=1;resizable=0;points=[];align=center;verticalAlign=middle;labelBackgroundColor=#ffffff;fontSize=11;" parent="GEuAhGHCuxGuIh9eKHUS-22" vertex="1" connectable="0">
                    <mxGeometry x="0.1644" y="-3" relative="1" as="geometry">
                        <mxPoint x="-1.6700000000000017" y="-3" as="offset"/>
                    </mxGeometry>
                </mxCell>
                <mxCell id="GEuAhGHCuxGuIh9eKHUS-40" style="edgeStyle=none;rounded=0;orthogonalLoop=1;jettySize=auto;html=1;exitX=0.988;exitY=0.897;exitDx=0;exitDy=0;entryX=-0.003;entryY=0.891;entryDx=0;entryDy=0;fontSize=11;fillColor=#dae8fc;strokeColor=#6c8ebf;entryPerimeter=0;exitPerimeter=0;" parent="1" source="GEuAhGHCuxGuIh9eKHUS-6" target="GEuAhGHCuxGuIh9eKHUS-5" edge="1">
                    <mxGeometry relative="1" as="geometry"/>
                </mxCell>
                <mxCell id="GEuAhGHCuxGuIh9eKHUS-41" value="&lt;font color=&quot;#004c99&quot;&gt;&amp;lt;websockets&amp;gt;&lt;br&gt;Send tel2&lt;/font&gt;" style="text;html=1;resizable=0;points=[];align=center;verticalAlign=middle;labelBackgroundColor=#ffffff;fontSize=11;" parent="GEuAhGHCuxGuIh9eKHUS-40" vertex="1" connectable="0">
                    <mxGeometry x="0.131" y="2" relative="1" as="geometry">
                        <mxPoint y="1" as="offset"/>
                    </mxGeometry>
                </mxCell>
                <mxCell id="4" value="&amp;lt;websockets&amp;gt;&lt;br&gt;Server time" style="edgeStyle=orthogonalEdgeStyle;rounded=0;orthogonalLoop=1;jettySize=auto;html=1;exitX=0.5;exitY=1;exitDx=0;exitDy=0;entryX=0.5;entryY=1;entryDx=0;entryDy=0;" edge="1" parent="1" source="GEuAhGHCuxGuIh9eKHUS-6" target="GEuAhGHCuxGuIh9eKHUS-5">
                    <mxGeometry relative="1" as="geometry">
                        <Array as="points">
                            <mxPoint x="470" y="750"/>
                            <mxPoint x="735" y="750"/>
                        </Array>
                    </mxGeometry>
                </mxCell>
                <mxCell id="GEuAhGHCuxGuIh9eKHUS-6" value="Consumer 2" style="rounded=0;whiteSpace=wrap;html=1;" parent="1" vertex="1">
                    <mxGeometry x="415" y="570" width="110" height="110" as="geometry"/>
                </mxCell>
                <mxCell id="GEuAhGHCuxGuIh9eKHUS-26" value="&amp;lt;HTTP Response&amp;gt;&lt;br&gt;Token,&amp;nbsp;Permissions,&lt;br&gt;Server Time, Config File" style="edgeStyle=orthogonalEdgeStyle;rounded=0;orthogonalLoop=1;jettySize=auto;html=1;exitX=1;exitY=0.75;exitDx=0;exitDy=0;entryX=0.5;entryY=0;entryDx=0;entryDy=0;fontSize=11;" parent="1" source="GEuAhGHCuxGuIh9eKHUS-8" target="GEuAhGHCuxGuIh9eKHUS-2" edge="1">
                    <mxGeometry x="-0.3939" relative="1" as="geometry">
                        <mxPoint as="offset"/>
                        <Array as="points">
                            <mxPoint x="705" y="145"/>
                        </Array>
                    </mxGeometry>
                </mxCell>
                <mxCell id="GEuAhGHCuxGuIh9eKHUS-28" value="Username&lt;br&gt;Password&lt;br&gt;Token" style="edgeStyle=orthogonalEdgeStyle;curved=1;rounded=0;orthogonalLoop=1;jettySize=auto;html=1;entryX=1;entryY=0.3;entryDx=0;entryDy=0;fontSize=11;" parent="1" source="GEuAhGHCuxGuIh9eKHUS-8" target="GEuAhGHCuxGuIh9eKHUS-27" edge="1">
                    <mxGeometry relative="1" as="geometry"/>
                </mxCell>
                <mxCell id="f5708szo8LG6qZLeBaCD-1" style="edgeStyle=orthogonalEdgeStyle;rounded=0;orthogonalLoop=1;jettySize=auto;html=1;exitX=0.75;exitY=0;exitDx=0;exitDy=0;entryX=1;entryY=0.25;entryDx=0;entryDy=0;" parent="1" source="GEuAhGHCuxGuIh9eKHUS-8" target="GEuAhGHCuxGuIh9eKHUS-5" edge="1">
                    <mxGeometry relative="1" as="geometry"/>
                </mxCell>
                <mxCell id="f5708szo8LG6qZLeBaCD-2" value="&amp;lt;HTTP&amp;gt;&lt;br&gt;Request: username + password&lt;br&gt;Response: Token, Permissions,&lt;br&gt;Sever Time. Config File" style="edgeLabel;html=1;align=center;verticalAlign=middle;resizable=0;points=[];" parent="f5708szo8LG6qZLeBaCD-1" vertex="1" connectable="0">
                    <mxGeometry x="0.4577" y="-2" relative="1" as="geometry">
                        <mxPoint x="-58" y="53.5" as="offset"/>
                    </mxGeometry>
                </mxCell>
                <mxCell id="GEuAhGHCuxGuIh9eKHUS-8" value="Auth API" style="rounded=0;whiteSpace=wrap;html=1;" parent="1" vertex="1">
                    <mxGeometry x="420" y="100" width="110" height="60" as="geometry"/>
                </mxCell>
                <mxCell id="GEuAhGHCuxGuIh9eKHUS-19" value="Send tel1" style="edgeStyle=orthogonalEdgeStyle;rounded=0;orthogonalLoop=1;jettySize=auto;html=1;fontSize=11;exitX=0.5;exitY=0;exitDx=0;exitDy=0;entryX=0.5;entryY=1;entryDx=0;entryDy=0;" parent="1" source="NuZOIr6IMCNAJ--xz0kv-4" target="GEuAhGHCuxGuIh9eKHUS-3" edge="1">
                    <mxGeometry x="-0.4286" relative="1" as="geometry">
                        <mxPoint x="470" y="430" as="sourcePoint"/>
                        <mxPoint x="470" y="360" as="targetPoint"/>
                        <mxPoint as="offset"/>
                    </mxGeometry>
                </mxCell>
                <mxCell id="GEuAhGHCuxGuIh9eKHUS-20" value="&lt;font color=&quot;#004c99&quot;&gt;Send tel2&lt;/font&gt;" style="edgeStyle=orthogonalEdgeStyle;rounded=0;orthogonalLoop=1;jettySize=auto;html=1;fontSize=11;entryX=0.75;entryY=0;entryDx=0;entryDy=0;exitX=0.696;exitY=0.992;exitDx=0;exitDy=0;fillColor=#dae8fc;strokeColor=#6c8ebf;exitPerimeter=0;" parent="1" source="NuZOIr6IMCNAJ--xz0kv-4" target="GEuAhGHCuxGuIh9eKHUS-6" edge="1">
                    <mxGeometry relative="1" as="geometry">
                        <mxPoint x="497.5" y="510" as="sourcePoint"/>
                    </mxGeometry>
                </mxCell>
                <mxCell id="GEuAhGHCuxGuIh9eKHUS-16" value="Send&lt;br&gt;tel1" style="edgeStyle=orthogonalEdgeStyle;rounded=0;orthogonalLoop=1;jettySize=auto;html=1;fontSize=11;entryX=0.003;entryY=0.25;entryDx=0;entryDy=0;exitX=1;exitY=0.25;exitDx=0;exitDy=0;entryPerimeter=0;" parent="1" source="GEuAhGHCuxGuIh9eKHUS-11" target="NuZOIr6IMCNAJ--xz0kv-4" edge="1">
                    <mxGeometry relative="1" as="geometry">
                        <mxPoint x="415" y="450" as="targetPoint"/>
                    </mxGeometry>
                </mxCell>
                <mxCell id="GEuAhGHCuxGuIh9eKHUS-37" style="edgeStyle=none;rounded=0;orthogonalLoop=1;jettySize=auto;html=1;exitX=1;exitY=0.75;exitDx=0;exitDy=0;entryX=0.009;entryY=0.767;entryDx=0;entryDy=0;fontSize=11;fillColor=#dae8fc;strokeColor=#6c8ebf;entryPerimeter=0;" parent="1" source="GEuAhGHCuxGuIh9eKHUS-11" target="NuZOIr6IMCNAJ--xz0kv-4" edge="1">
                    <mxGeometry relative="1" as="geometry">
                        <mxPoint x="415" y="490" as="targetPoint"/>
                    </mxGeometry>
                </mxCell>
                <mxCell id="GEuAhGHCuxGuIh9eKHUS-38" value="&lt;font color=&quot;#004c99&quot;&gt;Send&lt;br&gt;tel2&lt;/font&gt;" style="text;html=1;resizable=0;points=[];align=center;verticalAlign=middle;labelBackgroundColor=#ffffff;fontSize=11;" parent="GEuAhGHCuxGuIh9eKHUS-37" vertex="1" connectable="0">
                    <mxGeometry x="0.2211" y="4" relative="1" as="geometry">
                        <mxPoint x="-11.38" as="offset"/>
                    </mxGeometry>
                </mxCell>
                <mxCell id="GEuAhGHCuxGuIh9eKHUS-11" value="Consumer&lt;br&gt;3" style="rounded=0;whiteSpace=wrap;html=1;" parent="1" vertex="1">
                    <mxGeometry x="240" y="430" width="80" height="80" as="geometry"/>
                </mxCell>
                <mxCell id="GEuAhGHCuxGuIh9eKHUS-27" value="&amp;lt;PostgreSQL&amp;gt;&lt;br&gt;DB" style="shape=cylinder;whiteSpace=wrap;html=1;boundedLbl=1;backgroundOutline=1;fontSize=11;" parent="1" vertex="1">
                    <mxGeometry x="240" y="150" width="80" height="85" as="geometry"/>
                </mxCell>
                <mxCell id="GEuAhGHCuxGuIh9eKHUS-30" value="&lt;b&gt;&lt;font style=&quot;font-size: 14px&quot;&gt;LOVE Manager&lt;/font&gt;&lt;/b&gt;" style="text;html=1;resizable=0;points=[];autosize=1;align=left;verticalAlign=top;spacingTop=-4;fontSize=11;" parent="1" vertex="1">
                    <mxGeometry x="240" y="70" width="120" height="20" as="geometry"/>
                </mxCell>
                <mxCell id="GEuAhGHCuxGuIh9eKHUS-32" style="rounded=0;orthogonalLoop=1;jettySize=auto;html=1;entryX=0;entryY=0.25;entryDx=0;entryDy=0;fontSize=11;exitX=1;exitY=0.25;exitDx=0;exitDy=0;" parent="1" source="GEuAhGHCuxGuIh9eKHUS-31" target="GEuAhGHCuxGuIh9eKHUS-11" edge="1">
                    <mxGeometry relative="1" as="geometry"/>
                </mxCell>
                <mxCell id="GEuAhGHCuxGuIh9eKHUS-33" value="&amp;lt;websockets&amp;gt;&lt;br&gt;Send tel1" style="text;html=1;resizable=0;points=[];align=center;verticalAlign=middle;labelBackgroundColor=#ffffff;fontSize=11;" parent="GEuAhGHCuxGuIh9eKHUS-32" vertex="1" connectable="0">
                    <mxGeometry x="0.1714" y="1" relative="1" as="geometry">
                        <mxPoint x="-23" y="1" as="offset"/>
                    </mxGeometry>
                </mxCell>
                <mxCell id="GEuAhGHCuxGuIh9eKHUS-39" value="&lt;font color=&quot;#004c99&quot;&gt;&amp;lt;websockets&amp;gt;&lt;br&gt;Send tel2&lt;/font&gt;" style="edgeStyle=none;rounded=0;orthogonalLoop=1;jettySize=auto;html=1;exitX=1;exitY=0.75;exitDx=0;exitDy=0;entryX=0;entryY=0.75;entryDx=0;entryDy=0;fontSize=11;fillColor=#dae8fc;strokeColor=#6c8ebf;" parent="1" source="GEuAhGHCuxGuIh9eKHUS-31" target="GEuAhGHCuxGuIh9eKHUS-11" edge="1">
                    <mxGeometry x="-0.2308" relative="1" as="geometry">
                        <mxPoint as="offset"/>
                    </mxGeometry>
                </mxCell>
                <mxCell id="GEuAhGHCuxGuIh9eKHUS-31" value="LOVE Producer" style="rounded=0;whiteSpace=wrap;html=1;" parent="1" vertex="1">
                    <mxGeometry x="20" y="430" width="80" height="80" as="geometry"/>
                </mxCell>
                <mxCell id="GEuAhGHCuxGuIh9eKHUS-34" value="Send tel1" style="edgeStyle=orthogonalEdgeStyle;rounded=0;orthogonalLoop=1;jettySize=auto;html=1;fontSize=11;entryX=0.25;entryY=0;entryDx=0;entryDy=0;" parent="1" target="GEuAhGHCuxGuIh9eKHUS-6" edge="1">
                    <mxGeometry relative="1" as="geometry">
                        <mxPoint x="443" y="510" as="sourcePoint"/>
                        <mxPoint x="508" y="600" as="targetPoint"/>
                    </mxGeometry>
                </mxCell>
                <mxCell id="f5708szo8LG6qZLeBaCD-11" style="edgeStyle=orthogonalEdgeStyle;rounded=0;orthogonalLoop=1;jettySize=auto;html=1;exitX=0.15;exitY=0.95;exitDx=0;exitDy=0;exitPerimeter=0;entryX=1;entryY=0.25;entryDx=0;entryDy=0;fillColor=#60a917;strokeColor=#2D7600;" parent="1" source="NuZOIr6IMCNAJ--xz0kv-4" target="f5708szo8LG6qZLeBaCD-6" edge="1">
                    <mxGeometry relative="1" as="geometry"/>
                </mxCell>
                <mxCell id="f5708szo8LG6qZLeBaCD-12" value="&lt;font color=&quot;#006600&quot;&gt;Obs Log&lt;/font&gt;" style="edgeLabel;html=1;align=center;verticalAlign=middle;resizable=0;points=[];" parent="f5708szo8LG6qZLeBaCD-11" vertex="1" connectable="0">
                    <mxGeometry x="0.212" y="-1" relative="1" as="geometry">
                        <mxPoint as="offset"/>
                    </mxGeometry>
                </mxCell>
                <mxCell id="NuZOIr6IMCNAJ--xz0kv-4" value="&lt;span&gt;&amp;lt;Redis&amp;gt;&lt;/span&gt;&lt;br&gt;&lt;span&gt;Channel Layer&lt;/span&gt;" style="shape=cylinder;whiteSpace=wrap;html=1;boundedLbl=1;backgroundOutline=1;" parent="1" vertex="1">
                    <mxGeometry x="420" y="430" width="110" height="80" as="geometry"/>
                </mxCell>
                <mxCell id="NuZOIr6IMCNAJ--xz0kv-8" style="edgeStyle=orthogonalEdgeStyle;rounded=0;orthogonalLoop=1;jettySize=auto;html=1;exitX=1;exitY=0.5;exitDx=0;exitDy=0;entryX=1;entryY=1;entryDx=0;entryDy=0;" parent="1" source="NuZOIr6IMCNAJ--xz0kv-5" target="GEuAhGHCuxGuIh9eKHUS-5" edge="1">
                    <mxGeometry relative="1" as="geometry">
                        <mxPoint x="760" y="750" as="targetPoint"/>
                    </mxGeometry>
                </mxCell>
                <mxCell id="NuZOIr6IMCNAJ--xz0kv-9" value="&amp;lt;HTTP Response&amp;gt;&lt;br&gt;Cmd Ack" style="edgeLabel;html=1;align=center;verticalAlign=middle;resizable=0;points=[];" parent="NuZOIr6IMCNAJ--xz0kv-8" vertex="1" connectable="0">
                    <mxGeometry x="-0.268" y="2" relative="1" as="geometry">
                        <mxPoint x="-42.33" as="offset"/>
                    </mxGeometry>
                </mxCell>
                <mxCell id="f5708szo8LG6qZLeBaCD-3" style="edgeStyle=orthogonalEdgeStyle;rounded=0;orthogonalLoop=1;jettySize=auto;html=1;exitX=0;exitY=0.25;exitDx=0;exitDy=0;entryX=0.75;entryY=0;entryDx=0;entryDy=0;" parent="1" source="NuZOIr6IMCNAJ--xz0kv-5" target="NuZOIr6IMCNAJ--xz0kv-10" edge="1">
                    <mxGeometry relative="1" as="geometry">
                        <Array as="points">
                            <mxPoint x="367.5" y="810"/>
                            <mxPoint x="367.5" y="760"/>
                            <mxPoint x="77.5" y="760"/>
                        </Array>
                    </mxGeometry>
                </mxCell>
                <mxCell id="f5708szo8LG6qZLeBaCD-4" value="&amp;lt;HTTP Request&amp;gt;&lt;br&gt;Command" style="edgeLabel;html=1;align=center;verticalAlign=middle;resizable=0;points=[];" parent="f5708szo8LG6qZLeBaCD-3" vertex="1" connectable="0">
                    <mxGeometry x="-0.4052" relative="1" as="geometry">
                        <mxPoint x="-172.5" as="offset"/>
                    </mxGeometry>
                </mxCell>
                <mxCell id="f5708szo8LG6qZLeBaCD-15" style="edgeStyle=orthogonalEdgeStyle;rounded=0;orthogonalLoop=1;jettySize=auto;html=1;exitX=0;exitY=0.75;exitDx=0;exitDy=0;entryX=0.5;entryY=1;entryDx=0;entryDy=0;" parent="1" source="NuZOIr6IMCNAJ--xz0kv-5" target="NuZOIr6IMCNAJ--xz0kv-10" edge="1">
                    <mxGeometry relative="1" as="geometry"/>
                </mxCell>
                <mxCell id="f5708szo8LG6qZLeBaCD-16" value="&amp;lt;HTTP&amp;gt;&lt;br&gt;SAL Info" style="edgeLabel;html=1;align=center;verticalAlign=middle;resizable=0;points=[];" parent="f5708szo8LG6qZLeBaCD-15" vertex="1" connectable="0">
                    <mxGeometry x="0.5544" y="-4" relative="1" as="geometry">
                        <mxPoint as="offset"/>
                    </mxGeometry>
                </mxCell>
                <mxCell id="NuZOIr6IMCNAJ--xz0kv-5" value="Commands API" style="rounded=0;whiteSpace=wrap;html=1;" parent="1" vertex="1">
                    <mxGeometry x="412.5" y="790" width="110" height="80" as="geometry"/>
                </mxCell>
                <mxCell id="f5708szo8LG6qZLeBaCD-17" style="edgeStyle=orthogonalEdgeStyle;rounded=0;orthogonalLoop=1;jettySize=auto;html=1;exitX=1;exitY=0.5;exitDx=0;exitDy=0;entryX=0;entryY=0.5;entryDx=0;entryDy=0;" parent="1" source="NuZOIr6IMCNAJ--xz0kv-10" target="NuZOIr6IMCNAJ--xz0kv-5" edge="1">
                    <mxGeometry relative="1" as="geometry"/>
                </mxCell>
                <mxCell id="f5708szo8LG6qZLeBaCD-18" value="&amp;lt;HTTP Response&amp;gt;&lt;br&gt;Cmd Ack" style="edgeLabel;html=1;align=center;verticalAlign=middle;resizable=0;points=[];" parent="f5708szo8LG6qZLeBaCD-17" vertex="1" connectable="0">
                    <mxGeometry x="-0.6848" y="3" relative="1" as="geometry">
                        <mxPoint x="8" y="3" as="offset"/>
                    </mxGeometry>
                </mxCell>
                <mxCell id="NuZOIr6IMCNAJ--xz0kv-10" value="LOVE Commander" style="rounded=0;whiteSpace=wrap;html=1;" parent="1" vertex="1">
                    <mxGeometry x="17.5" y="780" width="80" height="70" as="geometry"/>
                </mxCell>
                <mxCell id="f5708szo8LG6qZLeBaCD-5" value="LOVE&lt;br&gt;CSC" style="rounded=0;whiteSpace=wrap;html=1;" parent="1" vertex="1">
                    <mxGeometry x="20" y="590" width="80" height="60" as="geometry"/>
                </mxCell>
                <mxCell id="f5708szo8LG6qZLeBaCD-13" style="edgeStyle=orthogonalEdgeStyle;rounded=0;orthogonalLoop=1;jettySize=auto;html=1;exitX=0;exitY=0.5;exitDx=0;exitDy=0;entryX=1;entryY=0.5;entryDx=0;entryDy=0;fillColor=#60a917;strokeColor=#2D7600;" parent="1" source="f5708szo8LG6qZLeBaCD-6" target="f5708szo8LG6qZLeBaCD-5" edge="1">
                    <mxGeometry relative="1" as="geometry"/>
                </mxCell>
                <mxCell id="f5708szo8LG6qZLeBaCD-14" value="&lt;font color=&quot;#006600&quot;&gt;&amp;lt;websockets&amp;gt;&lt;br&gt;Obs Log&lt;/font&gt;" style="edgeLabel;html=1;align=center;verticalAlign=middle;resizable=0;points=[];" parent="f5708szo8LG6qZLeBaCD-13" vertex="1" connectable="0">
                    <mxGeometry x="0.2" y="2" relative="1" as="geometry">
                        <mxPoint as="offset"/>
                    </mxGeometry>
                </mxCell>
                <mxCell id="f5708szo8LG6qZLeBaCD-6" value="Consumer&lt;br&gt;4" style="rounded=0;whiteSpace=wrap;html=1;" parent="1" vertex="1">
                    <mxGeometry x="250" y="580" width="80" height="80" as="geometry"/>
                </mxCell>
                <mxCell id="7" style="edgeStyle=orthogonalEdgeStyle;rounded=0;orthogonalLoop=1;jettySize=auto;html=1;exitX=1;exitY=0.5;exitDx=0;exitDy=0;entryX=0.25;entryY=0;entryDx=0;entryDy=0;startArrow=classic;startFill=1;" edge="1" parent="1" source="6" target="GEuAhGHCuxGuIh9eKHUS-2">
                    <mxGeometry relative="1" as="geometry"/>
                </mxCell>
                <mxCell id="8" value="&amp;lt;HTTP&amp;gt;&lt;br&gt;Views" style="edgeLabel;html=1;align=center;verticalAlign=middle;resizable=0;points=[];" vertex="1" connectable="0" parent="7">
                    <mxGeometry x="-0.2229" y="1" relative="1" as="geometry">
                        <mxPoint as="offset"/>
                    </mxGeometry>
                </mxCell>
                <mxCell id="9" style="edgeStyle=orthogonalEdgeStyle;rounded=0;orthogonalLoop=1;jettySize=auto;html=1;exitX=0;exitY=0.5;exitDx=0;exitDy=0;startArrow=classic;startFill=1;curved=1;entryX=1;entryY=0.7;entryDx=0;entryDy=0;" edge="1" parent="1" source="6" target="GEuAhGHCuxGuIh9eKHUS-27">
                    <mxGeometry relative="1" as="geometry"/>
                </mxCell>
                <mxCell id="10" value="Views" style="edgeLabel;html=1;align=center;verticalAlign=middle;resizable=0;points=[];" vertex="1" connectable="0" parent="9">
                    <mxGeometry x="0.2034" y="1" relative="1" as="geometry">
                        <mxPoint as="offset"/>
                    </mxGeometry>
                </mxCell>
                <mxCell id="6" value="UI Framework&lt;br&gt;API" style="rounded=0;whiteSpace=wrap;html=1;" vertex="1" parent="1">
                    <mxGeometry x="420" y="190" width="110" height="60" as="geometry"/>
                </mxCell>
            </root>
        </mxGraphModel>
    </diagram>
</mxfile>